<?xml version="1.0" encoding="UTF-8"?>
<svg id="Layer_1" data-name="Layer 1" xmlns="http://www.w3.org/2000/svg" viewBox="0 0 600 200">
  <defs>
    <style>
      .cls-1 {
        fill: #636060;
      }
    </style>
  </defs>
  <path class="cls-1" d="M514.59,173.49c-5.93-5.65-13.94-9.12-22.77-9.12-1.88,0-3.72.17-5.51.47.98-4.01,1.51-8.19,1.51-12.5,0-29.01-23.52-52.53-52.53-52.53-3.01,0-5.95.27-8.82.75-12.14-27.8-39.88-47.23-72.16-47.23-35.76,0-65.94,23.84-75.53,56.5-6.84-2.86-14.34-4.44-22.22-4.44-12.72,0-24.48,4.12-34.01,11.1-11.29-16.04-29.95-26.53-51.06-26.53-33.74,0-61.22,26.77-62.36,60.23-1.52-.14-3.06-.22-4.63-.22-17.76,0-33.32,9.42-41.96,23.53h452.04Z"/>
</svg>