<svg width="1357" height="1926" viewBox="0 0 1357 1926" fill="none" xmlns="http://www.w3.org/2000/svg">
<path d="M1296.9 1126.98C1288.87 1123.38 1281.02 1119.37 1272.52 1115.27C1272.15 1116.83 1271.83 1118.21 1271.53 1119.47C1274.16 1122.81 1274.14 1128.06 1275.8 1132.66C1275.03 1132.45 1274.18 1132.38 1273.51 1132C1264.65 1126.92 1255.65 1122.05 1247.02 1116.6C1238.65 1111.3 1230.64 1105.42 1222.53 1099.72C1218.96 1097.21 1215.02 1094.98 1212.16 1091.8C1207.74 1086.9 1202.55 1083.16 1197.2 1079.49C1193.15 1076.71 1188.93 1074.04 1185.32 1070.75C1176.5 1062.73 1166.86 1055.87 1156.32 1050.46C1149.5 1046.96 1143.34 1042.48 1136.69 1038.76C1132.78 1036.57 1129.47 1033.19 1126.2 1030.02C1121.46 1025.44 1116.52 1020.93 1112.52 1015.74C1107.09 1008.68 1098.8 1007.24 1091.52 1003.92C1087.22 1001.96 1082.37 1001.05 1077.81 999.63C1074.25 998.52 1071.86 997.03 1070.09 994.33C1071.76 990.37 1068.93 988.25 1067.45 985.42C1065.79 982.23 1066.36 977.45 1064.14 975.09C1061.46 972.25 1061.35 969.08 1060.46 966.03C1059.43 962.53 1058.05 959.46 1055.3 957.05C1054.2 957.34 1053.11 957.63 1052.01 957.93C1050.77 956.57 1049.26 955.37 1048.33 953.82C1046.82 951.31 1045.34 948.68 1044.49 945.9C1043.52 942.74 1040.14 940.87 1040.26 937.18C1040.37 933.94 1037.55 931.94 1036.48 929.23C1033.41 921.4 1030.43 913.57 1026.86 905.92C1023.37 898.45 1021.11 890.36 1018.69 882.43C1016.3 874.56 1014.39 866.55 1012.26 858.59C1011.46 855.57 1010.43 852.6 1009.91 849.53C1009.37 846.37 1009.13 843.12 1009.09 839.91C1009.02 834.9 1008.74 829.82 1009.42 824.89C1011.24 811.64 1013.35 798.43 1015.68 785.26C1016.87 778.54 1019.89 772.14 1019.04 765.07C1022.95 759.76 1020.62 753 1023.13 747.36C1022.38 737.28 1022.17 727.18 1021.88 717.08C1021.66 709.59 1019.83 702.14 1019.44 694.54C1019.21 690.1 1017.05 685.8 1016.16 681.36C1015.25 676.83 1015.41 672.04 1014.08 667.67C1010.53 655.93 1009.24 643.53 1003.21 632.49C1001.23 628.86 1000.88 624.34 999.37 618.71C995.98 616.75 991.62 614.23 986.81 611.45C986.89 610.02 987.49 607.8 987.02 605.83C985.35 598.72 986.82 592.06 989.24 585.47C992.25 577.24 993.98 568.66 995.34 560.09C995.98 556.05 996.72 551.43 994.11 547.19C991.73 546.38 989.19 545.5 986.65 544.63C990.22 535.67 993.98 526.99 997.13 518.1C999.88 510.35 1002.28 502.44 1004.22 494.45C1006.22 486.22 1007.06 477.7 1010.8 469.95C1012.25 466.95 1014.29 464.14 1015.23 461C1018.55 449.87 1024.29 439.83 1029.52 429.65C1036.65 415.79 1044.98 402.54 1052.8 389.04C1053.79 387.33 1054.45 385.17 1055.9 384.03C1065.79 376.24 1074.34 366.8 1085.22 360.22C1089.49 357.64 1093.65 354.85 1097.82 352.1C1102.65 348.92 1107.11 344.93 1112.32 342.66C1117.84 340.26 1121.84 336 1126.75 332.92C1135.82 327.23 1144.06 320.2 1151.99 314.23C1155.96 314.53 1159.13 315.18 1162.22 314.92C1167.78 314.45 1172.87 315.36 1177.68 318.17C1185.52 322.75 1193.4 327.27 1201.25 331.83C1202.71 332.68 1204.27 333.42 1205.55 334.49C1212.19 340.03 1226.76 349.21 1233.58 350.27C1238.11 350.98 1241.83 353.31 1247.22 353.53C1241.57 362.87 1240.18 372.46 1237.47 381.65C1232.58 398.19 1234.08 415.62 1229.96 432.25C1229.4 434.5 1230.05 437.04 1229.56 439.33C1228.38 444.87 1228.64 450.51 1229.33 455.93C1230.98 468.91 1239.77 477.39 1249.52 484.93C1250.93 486.02 1252.96 486.3 1255.05 487.1C1256.54 490.95 1257.04 495.58 1259.94 499.58C1261.4 501.6 1260.23 505.36 1260.82 508.21C1261.8 512.93 1263.24 517.55 1264.48 522.21C1264.75 522.14 1265.27 522.05 1265.26 521.99C1264.82 513.72 1266.13 505.3 1263.16 497.21C1262.55 495.56 1262.75 493.62 1262.55 491.47C1260.68 490.86 1260.82 488.37 1260.19 486.33C1265.45 488.05 1269.95 490.79 1273.28 495.39C1274.1 496.52 1275.94 496.9 1277.3 497.62C1274.75 491.52 1270.71 486.89 1264.64 483.98C1259.85 481.69 1255.22 479.04 1250.52 476.56C1247.04 474.87 1243.56 473.18 1240.9 471.89C1239.15 468.7 1237.34 466.5 1236.7 464C1235.27 458.44 1233.38 453.09 1233.59 446.99C1233.96 436.46 1234 425.97 1235.93 415.55C1237.22 408.57 1238.83 401.66 1240.29 394.73C1242.47 384.39 1245.75 374.3 1251.58 365.27C1253.82 361.8 1254.72 358.14 1254.95 353.81C1255.94 335.08 1260.02 317.08 1268.31 300.02C1269.69 297.17 1355.85 2.99 1357 0.0200005H1289.65C1287.88 3.28 1250.79 297.89 1249.4 301.38C1245.57 310.94 1240.16 319.85 1235.62 328.73C1225.79 331.59 1215.49 330.35 1207.13 325.51C1204.43 323.95 1201.89 321.66 1198.98 321.01C1195.58 320.25 1193.57 317.9 1191.1 316.13C1187.87 313.8 1185.04 310.91 1182.07 308.23C1176.13 302.88 1169.67 297.97 1164.49 291.96C1161.3 288.26 1157.7 285.92 1153.79 283.52C1152.36 284.78 1151.18 285.82 1150.12 286.75C1148.8 286.21 1147.83 285.8 1146.48 285.25C1145.78 286.27 1145.24 287.84 1144.57 287.9C1139.14 288.38 1135.17 292.34 1130.09 293.7C1118.91 296.71 1107.8 299.4 1096.02 299.36C1084.39 299.32 1072.89 298.84 1061.42 296.9C1052.8 295.44 1044.56 292.38 1036.05 290.72C1025.49 288.66 1015.48 284.94 1005.69 280.99C995.11 276.73 985.33 270.47 975.22 265.05C972.97 263.84 970.77 262.54 968.59 261.21C966.5 259.94 964.45 258.6 962.19 257.17C965.01 252.35 967.55 248.01 969.57 244.54C967.85 240.53 966.5 237.38 965.33 234.66C969.55 227.9 972.2 221.11 978.42 216.79C980.55 215.31 982.26 213.09 983.84 210.97C986.03 208.04 989.95 206.4 990.43 202.2C987.18 202.43 985.21 204.78 982.96 206.69C979.76 209.4 976.55 212.08 972.33 215.63C969.18 220.17 965.23 225.87 961.85 230.75C961.67 234.13 961.01 236.64 961.58 238.83C962.15 241.03 963.94 242.92 965.17 244.9C960.2 252.45 955.29 259.26 944.91 254.92C944.7 254.83 944.37 255.12 944.1 255.11C935.41 254.8 926.85 253.7 918.36 251.73C913.01 250.49 907.51 249.63 902.04 249.29C898.64 249.08 895.25 249.39 891.76 248.94C885.72 248.17 880.79 244.63 875.67 243.66C872.24 238.85 869.2 234.58 866.56 230.89C863.13 230.7 860.76 230.57 858.83 230.47C857.24 231.48 855.91 232.32 854.59 233.17C853.27 234.03 852 234.99 850.63 235.76C842.54 240.28 835.88 247.3 826.47 249.49C823.61 253.73 819.51 252.54 815.69 252.01C811.67 247.36 808.1 242.38 803.69 238.31C796.03 231.24 787.46 225.19 780.18 217.66C777.77 215.17 775.02 213 772.34 210.78C769.42 208.37 766.41 206.06 763.42 203.74C760.6 201.55 757.42 199.66 754.49 197.9C751.7 196.22 749.55 192.14 745.26 193.22C740.38 187.01 732.95 185.49 726.59 182.73C724.64 183.92 723.17 185.15 721.48 185.77C718.83 186.74 715.25 186.48 713.42 188.18C708.1 193.14 699.91 191.13 694.95 196.44C686.8 198.03 678.66 199.61 670.51 201.2C667.76 199.38 665.13 201.6 662.54 201.41C659.78 201.21 657.25 201.3 654.52 201.81C651.44 202.38 648.18 202.11 645.01 201.98C636.33 201.64 627.64 201.12 618.99 200.59C610.16 200.05 601.44 197.63 592.56 196.6C578.75 195 565.01 192.94 551.11 191.99C542.73 191.41 534.31 191.24 525.93 190.53C521.88 190.18 506.64 196.55 501.33 199.68C496.31 202.64 491.02 205.17 486.03 208.18C480.6 211.46 474.68 213.83 469.57 217.73C465.19 221.07 460.71 225.01 455.63 226.54C446.4 229.31 439.34 236.08 430.28 238.88C429.23 242.26 422.79 241.03 423.95 246.3C430.68 252.49 440.02 252.45 447.8 256.19C447.18 257.26 446.61 258.25 445.88 259.5C442.79 259.55 440.06 261.84 436.37 260.95C432.59 260.03 428.54 260.29 424.64 259.76C413.53 258.22 402.28 257.1 392.5 250.75C390.6 249.52 388.71 247.9 386.59 247.42C376.56 245.14 368.28 238.98 358.86 235.34C351.55 232.52 344.43 229.24 336.99 226.7C330.83 224.6 324.89 221.88 318.53 219.3C313.2 221.7 306.89 219.8 301.01 222.1C295.23 224.36 289 225.46 282.97 227.07C282.7 227.14 282.42 227.22 282.15 227.29C281.61 227.42 280.87 227.83 280.54 227.62C277.04 225.34 274.09 228.31 270.87 228.55C267.38 228.81 263.94 228.4 260.37 229.39C256.32 230.51 253.08 233.36 249.18 234.21C238.58 236.52 228.6 241.31 217.37 241.27C212.71 241.25 208.09 243.77 203.37 244.73C198.57 245.71 193.45 245.54 188.87 247.08C182.45 249.23 175.61 248.05 169.32 250.36C165.95 248.77 162.89 250.6 159.68 251.11C156.51 251.62 153.18 251.33 150.08 252.04C143.17 253.63 136.34 255.58 129.52 257.52C128.8 257.72 128.37 258.92 127.81 259.66C142.87 254.66 158.53 252.85 175.73 251.22C182.13 253.11 189.94 255.71 197.91 257.64C201.46 258.5 206.14 259.66 208.82 257.13C211.4 254.7 214.23 254.55 216.98 253.52C218.83 252.83 221.33 253.03 222.63 251.85C227.08 247.78 233.4 248.75 237.93 245.9C242.83 242.81 248.11 241.71 253.4 240.29C270.55 235.69 287.57 230.51 305.24 228.17C313.64 224.29 321.85 227.5 329.56 229.9C338.14 232.58 346.07 237.31 354.3 241.12C366.69 246.86 376.24 256.44 386.61 264.91C392.06 269.36 397.58 273.73 403.05 278.12C414.36 274.41 425.27 270.72 436.25 267.29C442.2 265.43 448.26 263.87 454.34 262.48C457.68 261.71 460.13 259.96 462.4 257.11C456.58 250.18 449.52 244.66 440.84 239.57C443.59 238.84 445.44 238.78 446.76 237.92C455.36 232.35 463.71 226.39 472.42 221C476.92 218.22 480.8 214.01 485.38 212.19C493.23 209.06 499.05 202.76 506.83 199.98C513.61 197.56 520.56 195.03 527.63 194.17C533.19 193.49 539.21 194.66 544.74 196.09C558.29 199.57 572.24 200.35 585.98 202.28C592.49 203.2 598.92 204.42 605.38 205.55C611.93 206.69 618.22 208.8 624.5 210.98C636.37 215.11 648.3 219.08 660.57 223.24C664.54 222.18 669.53 221.94 673.11 219.56C676.19 217.52 679.71 216.27 682.64 213.92C685.7 211.47 689.46 209.9 692.62 207.56C695.61 205.35 698.97 203.71 702.1 201.89C711.11 196.63 719.46 189.55 729.72 189.15C736.9 193.3 743.49 197.12 750.33 201.08C750.53 201.72 750.87 202.76 750.89 202.82C757.61 207.44 763.59 211.49 769.49 215.65C771 216.72 772.12 218.36 773.66 219.36C779.14 222.89 784.37 226.53 787.29 232.75C787.94 234.14 789.99 234.89 791.39 235.93C792.77 240.08 797.2 242.2 798.47 246.33C799.88 250.93 806.42 253.8 802.35 260.24C805.93 262.32 809.06 264.14 811.81 265.74C815.2 264.83 818.37 262.89 820.57 263.66C823.74 264.78 825.99 263.24 828.65 263.02C831.58 262.77 834.61 263.02 837.43 262.34C843.3 260.94 849.07 261.34 854.92 262.21C857.51 262.6 860.19 262.88 862.78 262.64C867.65 262.18 872.47 261.08 877.35 260.65C882.37 260.21 887.44 260.04 892.48 260.13C898.52 260.24 904.57 260.58 910.58 261.11C919 261.85 927.27 263.42 935.28 266.24C936.72 266.75 938.4 266.57 939.95 266.81C947.99 268.03 956.02 268.54 964.08 270.59C976.99 273.88 988.9 279.33 1001.02 284.36C1008.17 287.33 1014.66 291.77 1021.77 295.07C1030.68 299.21 1039.71 302.92 1048.91 306.29C1060.91 310.68 1072.92 315 1085.39 318.02C1091.28 319.45 1096.83 322.3 1102.34 324.43C1100.72 329.84 1096.28 331.67 1092.73 334.51C1083.73 341.73 1075.36 349.66 1066.25 356.81C1059 362.49 1052.37 368.89 1044 373.01C1043.18 376.87 1038.4 374.76 1036.8 377.92C1035.48 380.53 1033.52 382.97 1031.35 384.96C1028.87 387.25 1025.95 389.14 1023.04 390.89C1020.3 392.53 1016.58 393.1 1014.6 395.32C1011.53 398.76 1007.23 399.41 1003.97 399.17C1000.14 398.9 996.95 400.04 993.5 400.61C992.39 400.8 991.26 401.54 990.22 401.41C980.64 400.29 971.19 402.88 961.58 402.17C953.69 401.59 945.73 402.04 937.8 402.05C927.05 402.06 916.27 401 905.71 404.53C898.73 406.87 891.57 408.82 884.35 410.23C877.64 411.53 871.3 413.92 864.95 416.29C863.91 418.75 861.73 420.71 859.02 421.67C818.51 436.16 780.58 457.38 744.85 481.26C744.22 482.27 743.63 483.29 743.11 484.34C740.99 488.55 736.53 489.65 733.64 492.78C729.71 497.04 725.57 501.16 721.17 504.93C714.69 510.48 709.24 516.69 706.3 524.83L706.49 525.53C706.78 525.96 707.18 526.2 707.69 526.25L708.38 526.04C709.08 525.24 709.99 524.54 710.43 523.62C713.07 518.09 717.23 513.97 721.83 510.02C729.22 503.68 736.48 497.14 743.28 490.17C748.12 485.2 753.4 481 759.12 477.18C763.69 474.12 767.84 470.44 772.35 467.3C774.95 465.49 777.98 464.32 780.68 462.64C784.53 460.24 788.74 458.56 792.72 456.42C799.5 452.76 806.18 448.92 812.98 445.3C820.52 441.28 828.89 438.52 835.77 433.62C845.87 426.45 857.67 423.46 868.52 418.22C877.65 413.81 888.31 415.34 897.84 412.01C902.23 414.39 906.26 411.04 910.63 411.15C918.28 411.35 925.99 411.55 933.66 411.23C941.62 410.89 949.56 411.68 957.56 410.88C965.53 410.08 973.67 411.26 981.58 409.1C983.42 408.6 985.39 408.58 987.3 408.34C989.52 408.06 991.76 407.91 993.94 407.48C996.16 407.05 998.33 406.31 1000.53 405.78C1001.02 405.66 1001.58 405.81 1002.09 405.89C1004.42 406.25 1006.78 407.03 1009.08 406.89C1011.49 406.75 1013.85 405.73 1016.67 404.98C1015.77 407.82 1015.15 409.82 1014.5 411.82C1012.27 418.65 1009.52 425.33 1008.18 432.41C1005.99 444.02 1003.6 455.61 1002 467.31C1000.82 476.01 1002.17 485.22 995.63 492.52C996.01 498.62 992.38 503.66 991.12 509.37C988.56 521.02 986.32 532.82 981.36 543.83C980.91 544.82 981.79 546.4 981.98 547.36C985.1 549.22 987.75 550.26 990.96 547.9C991.42 549.62 992.33 551.27 992.2 552.82C991.39 562.12 989.4 571.18 985.5 579.7C982.73 585.75 978.69 591.08 976.33 597.48C974.33 602.9 971.85 608.52 967.68 612.9C965.87 614.8 963.27 616.13 961.94 618.28C955.71 628.44 947.46 637.22 941.87 647.82C941.15 649.2 939.44 650.07 938.78 651.46C936.43 656.39 931.18 657.12 927.28 659.78C925.39 661.07 924.12 663.79 920.26 661.98C922.13 657.27 920.13 652.62 918.91 647.85C918.84 647.58 918.66 647.26 918.74 647.04C920.4 642.39 918.8 638.83 916.27 635.58C913.49 638.33 910.82 641.22 908.09 644.12C900.16 652.55 891.57 660.26 880.77 664.77C857.8 674.36 829.01 680.29 804.7 672.86C803.97 672.64 803.32 672.35 802.72 672.01C798.71 671.63 794.72 671.11 790.76 670.33C773.74 667 756.66 664.22 739.44 662.29C731.96 661.45 724.51 660.81 717.12 662.95C715.53 663.41 713.78 664.14 712.25 663.88C705.92 662.81 700.76 665.97 695.27 668.11C697.53 668.2 699.8 666.85 701.73 667.22C706.63 668.18 711.27 666.11 716.09 666.71C721.04 667.33 726.04 667.88 731.01 667.81C746.9 667.58 762.32 671.27 777.91 673.34C788.71 674.78 798.99 678.69 809.27 682.43C819.72 686.23 830.14 690.4 839.8 691.54C843.03 690.28 845.82 689.58 848.11 688.59C848.8 687.58 849.76 686.67 851.06 685.92C864.66 678.08 877.22 668.9 891.95 663.17C894.12 662.33 896.45 662.78 898.42 663.94L910.29 660.77C912.37 661.22 913.92 661.56 915.35 661.87L916.87 667.55C914.34 670.11 911.19 672.18 909.63 675.1C905.93 682 900.16 686.63 894.55 691.72C891.59 694.4 888.76 696.23 885.11 697.61C880.84 699.23 876.66 701.21 872.49 703.12C867.24 705.53 862.63 709.31 857.4 711.79C856.04 712.43 854.78 713.15 853.6 713.94C853.55 715.3 853.17 716.63 852.39 717.8C850.05 721.29 848.01 724.93 845.36 728.21C842.54 731.7 839.07 733.9 835.08 735.66C830.46 739.9 824.85 742.37 819.32 744.87C813.31 747.58 808.39 751.61 803.41 755.74C810.09 754.43 815.05 749.8 820.86 746.95C827.14 743.87 832.85 740.19 838.6 736.37C841.23 734.63 843.92 732.97 846.65 731.34C846.82 730.87 847.02 730.41 847.27 729.97C849.15 726.72 851.11 723.57 853.57 720.71C853.71 720.55 853.85 720.41 854 720.27L853.9 719.9C856.98 718.24 860.08 717.12 862.5 715.17C869.69 709.37 878.38 706.5 886.48 702.52C889.48 701.04 892.46 700 894.07 696.85C896.81 696.12 899.55 695.39 902.06 694.72C905.1 691.09 908.08 688 909.41 683.1C910.62 678.66 914.83 675.04 917.65 671.15C918.61 670.89 919.54 670.86 920.24 670.43C926.07 666.81 931.66 662.82 937.8 659.71C938.93 659.14 939.97 658.13 940.71 657.08C943.9 652.57 946.93 647.94 950.08 643.4C955.41 635.72 960.69 627.99 966.21 620.44C968.4 617.44 971.82 615.87 975.36 613.7C975.04 620.44 972.67 625.86 972.71 631.78C972.76 639.51 973 647.2 973.4 654.93C973.86 663.77 972.1 672.72 975.47 681.34C975.57 681.6 975.71 681.9 975.68 682.16C974.7 690.72 979.01 698.66 978.06 707.78C977.93 708.06 977.46 709.09 977.05 709.96C969.66 711.5 964.07 715.1 959.27 720.83C955.99 724.74 951.27 727.66 946.75 730.25C940.33 733.94 933.74 737.23 928.22 742.32C925.14 745.16 921.88 747.88 918.41 750.2C914.22 753 909.71 755.32 906.14 757.38C902.81 760.78 900.49 764.55 897.11 766.33C888.94 770.65 880.94 775.65 871.74 776.66C867.91 781.87 862.19 783.78 857.28 786.83C855.69 787.82 853.89 788.69 852.08 789.07C839.51 791.68 827.58 796.6 814.51 797.71C805.32 798.49 796.3 801.96 787.35 804.72C778.61 807.41 769.38 808.3 761.17 813.15C757.22 815.48 752.23 816.31 747.51 817.03C737.32 822.64 726.04 826.53 714.82 829.44C702.69 832.58 689.91 834.78 677.34 834.41C675.93 834.37 674.71 834.06 673.65 833.56C669.91 833.95 666.15 834.23 662.39 834.54C652.83 835.32 643.37 835.61 633.97 833.26C632.29 832.84 630.5 832.85 628 832.58C629.07 836.57 630.79 839.85 630.62 843.03C630.18 851.39 631.9 859.59 632.55 867.78C633.23 876.36 631.89 884.79 632.63 893.34C633.38 901.92 632.08 910.68 631.77 919.36C631.31 932.51 629.01 945.45 627.23 958.44C626.65 962.66 624.69 966.42 624.04 970.71C622.19 982.83 617.72 994.36 613.45 1005.76C608.94 1017.8 604.72 1029.76 602.07 1042.39C600.55 1049.64 600.65 1056.86 601.86 1063.71C603.28 1071.79 603.75 1079.77 603.88 1088.05C602.77 1088.35 601.65 1089 600.64 1088.86C588.69 1087.22 576.75 1085.47 564.81 1083.71C562.73 1083.4 560.7 1082.71 558.62 1082.53C547.31 1081.53 536.27 1078.91 525.37 1076.04C516.07 1073.6 507.32 1069.78 498.93 1065.22C498.32 1065 497.71 1064.77 497.11 1064.53C496.56 1064.64 496 1064.76 495.45 1064.89C488.77 1068.65 483.73 1076.52 480.74 1083.74C480.21 1085.03 479.49 1086.21 478.62 1087.2C475.86 1104.83 470.75 1121.76 462.68 1137.73C456.14 1137.04 450.41 1136.17 444.66 1135.94C441.97 1135.83 438.97 1137.91 436.57 1137.27C433.1 1136.35 430.43 1137.89 427.68 1138.77C424.85 1139.68 422.28 1138.24 419.64 1138.97C414.99 1140.25 410.36 1141.68 405.64 1142.65C401.12 1143.57 396.42 1143.69 391.92 1144.69C385.58 1146.09 379.34 1147.97 375.13 1149.1C367.46 1153.44 367.29 1159.05 367.62 1164.85C370.1 1166.35 369.05 1168.8 369.21 1170.89C369.41 1173.55 369.64 1176.22 369.57 1178.87C369.37 1186.72 369.4 1186.83 362.59 1191.89C360.69 1193.3 357.94 1193.54 355.92 1194.83C348.71 1199.45 340.9 1202.5 332.62 1204.53C326.56 1206.02 320.55 1207.73 314.51 1209.34C313.14 1209.71 311.58 1210.68 310.43 1210.33C306.66 1209.16 303.5 1209.73 300.69 1212.45C297.87 1215.18 292.98 1213.39 290.53 1217.39C289.56 1218.97 287.11 1219.64 285.54 1220.6C286.83 1225.38 288.26 1229.08 290.3 1232.76C292.43 1236.62 292.51 1241.55 294.16 1245.76C295.17 1248.36 297.29 1250.6 299.17 1252.78C300.55 1254.39 302.36 1255.63 304.2 1257.23C304.72 1261.29 307.18 1265.15 305.92 1269.92C305.21 1272.62 305.83 1275.82 306.42 1278.67C307.21 1282.46 306.85 1286.06 306.09 1289.77C304.61 1296.97 303.32 1304.22 301.86 1311.43C300.09 1320.19 298.09 1328.91 296.48 1337.71C295.73 1341.82 296.63 1346.27 293.5 1349.75C294.28 1350.2 294.77 1350.49 295.59 1350.96C293.01 1356.28 290.19 1361.54 287.88 1367.01C285.9 1371.71 284.64 1376.55 286.2 1381.88C289 1391.41 291.4 1401.06 293.93 1410.67C294.05 1411.13 293.75 1411.69 293.63 1412.31C292.9 1411.95 292.2 1411.61 291.4 1411.21C291.18 1412.46 290.95 1413.71 290.83 1414.37C288.37 1415.88 286.47 1417.42 284.3 1418.3C281.71 1419.35 278.89 1419.83 276.16 1420.56C273.46 1423.57 270.19 1425.8 267.15 1428.3C265.12 1429.98 263.42 1432.06 261.57 1433.96C258.8 1436.82 256.48 1440.51 253.14 1442.3C249.71 1444.14 247.33 1446.91 244.52 1449.23C239.25 1453.59 234.07 1458.02 228.2 1461.57C227.64 1462.31 227.22 1463.29 226.48 1463.73C225.31 1464.41 223.59 1464.38 222.7 1465.26C220.79 1467.14 219.11 1469.31 217.62 1471.55C216.04 1473.91 214.52 1476.03 211.22 1475.3C211.46 1480.48 205.98 1481.42 203.82 1485.02C201.66 1488.62 197.19 1490.82 193.79 1493.71C193.18 1494.23 192.91 1495.13 192.4 1495.78C184.75 1505.47 177.38 1515.36 170.86 1525.85C168.18 1530.16 165.75 1534.63 164.35 1537.04C155.79 1543.52 150.99 1550.81 144.42 1556.03C137.58 1561.47 131.81 1567.98 124.77 1573.43C121.08 1575.1 117.15 1576.89 113.2 1578.64C109.02 1580.49 103.47 1579.36 100.57 1584.45C101.15 1586.62 101.63 1588.81 102.33 1590.94C103.51 1594.59 103.15 1598.2 100.79 1601C96.51 1606.06 92.05 1611.07 87.07 1615.4C84.64 1617.51 83.1 1619.33 82.46 1622.53C80.15 1634.1 74.18 1643.89 66.63 1652.73C62.64 1657.39 58.9699 1662.11 56.5299 1667.85C54.7199 1672.1 52.41 1676.4 48.15 1678.8C43.27 1681.55 38.67 1684.99 32.22 1683.31C29.87 1682.7 26.54 1683.98 26.08 1687.03C27.19 1694.89 27.37 1702.39 29.87 1709.56C31.73 1714.9 32.96 1720.48 34.29 1725.99C34.79 1728.05 36.5 1730.15 34.63 1732.37C36.91 1738.13 35.2 1744.12 35.2 1749.93C35.2 1756.14 34.22 1762.43 31.97 1768.55C29.04 1776.53 24.2 1783.37 20.33 1790.78C18.56 1794.16 16.94 1797.62 15.47 1800.6L19.3799 1815.24C19.7399 1814.4 20.55 1813.48 20.4 1812.74C19.79 1809.73 18.89 1806.77 18.12 1803.89C19.42 1800.9 20.45 1798.09 21.83 1795.46C23.81 1791.7 25.98 1788.02 28.2 1784.39C35.09 1773.15 39.2499 1760.98 39.5099 1747.8C39.7199 1737.34 40.62 1726.79 37.18 1716.49C34.85 1709.5 33.27 1702.26 31.41 1695.12C31.02 1693.62 30.8499 1692.07 30.4799 1689.96C40.1399 1692.51 48.6299 1689.02 56.4199 1689.07C59.1899 1682.49 58.44 1676.03 61.88 1670.64C60.41 1667.48 64.49 1667.82 65.03 1665.65C65.55 1663.53 67.25 1661.73 68.3 1659.71C71.86 1652.87 77.37 1647.57 82.74 1642.29C86.26 1638.83 89.8 1635.59 91.67 1631.29C86.17 1626.51 91.4 1621.22 90.21 1616.76C100.13 1609.18 109.89 1602.25 109.08 1588.68C112.93 1587.42 114.74 1584.22 117.79 1582.42C124.06 1578.71 129.96 1574.1 135.21 1569.03C138.46 1565.9 142.03 1563.18 145.48 1560.39C148.42 1558.01 151.39 1554.66 156.05 1555.35C147.95 1573.91 136.52 1603.19 132.69 1632.71C135.28 1634.11 137.98 1635.64 140.75 1637.05C146.41 1639.93 150.87 1644.01 154.98 1648.95C161.36 1656.63 166.7 1665.1 173.45 1672.46C177.48 1676.85 181.65 1681.12 186.1 1685.8C181.5 1690.83 177.16 1695.57 172.84 1700.34C172.29 1700.95 171.95 1702.21 171.4 1702.28C166.88 1702.83 163.45 1706.05 159.33 1707.21C151.45 1709.43 145.47 1713.91 140.41 1720.14C138.44 1722.57 136.15 1725.22 133.41 1726.44C127.64 1729.01 124.07 1734.14 119.22 1737.74C114.44 1741.29 110.12 1745.76 106.1 1750.41C101.46 1755.77 95.9 1760.33 90.74 1765.24C90.98 1765.36 91.22 1765.48 91.47 1765.6C90.17 1768.25 88.87 1770.9 87.58 1773.53C87.73 1774.1 88.03 1774.66 88 1775.2C87.53 1783.19 84.14 1790.52 82.7 1798.3C82.56 1799.07 81.99 1800.16 81.37 1800.36C78.51 1801.3 78.17 1804.11 76.86 1806.14C68.95 1818.42 62.8399 1831.73 54.0099 1843.53C47.3299 1852.46 42.73 1862.81 36.16 1871.97C28.49 1882.66 23.22 1894.89 15.33 1905.59C10.31 1912.4 7.00995 1920.49 -0.0500488 1925.89C5.48995 1923.74 11.0299 1921.59 16.8799 1919.32C19.0799 1915.51 22.0199 1911.54 23.7999 1907.11C26.4499 1900.51 28.94 1893.89 32.38 1887.63C35.99 1881.05 39.0799 1874.18 42.6899 1867.6C49.2399 1855.64 57.04 1844.51 64.93 1833.38C69.99 1826.25 75.33 1819.34 81.41 1813.29C85.41 1809.31 88.64 1805.14 91.25 1800.36C96.48 1790.79 101.77 1781.22 106.52 1771.41C108.78 1766.73 112.75 1762.11 109.59 1756.81C114.81 1746.48 123.03 1740.22 131.57 1733.97C137.88 1729.35 145.39 1726.03 149.76 1718.83C151.5 1715.96 155.61 1714.07 158.31 1714.95C163.16 1716.53 167.36 1711.95 171.95 1714.51C172.48 1714.81 173.74 1714.37 174.35 1713.88C176.59 1712.06 178.94 1710.28 180.81 1708.1C185.72 1702.38 190.06 1696.12 195.28 1690.71C200.18 1685.63 204.79 1679.97 211.84 1677.39C212.95 1676.98 213.63 1675.41 214.94 1673.87C212.05 1672.91 209.55 1672.07 207.04 1671.25C195.67 1667.53 183.73 1664.92 174.01 1657.53C168.65 1653.46 162.98 1650.05 157.28 1646.6C156.61 1646.2 156.13 1645.5 155.54 1644.97C149.56 1639.6 143.58 1634.23 137.01 1628.34C137.01 1627.92 136.73 1626.52 137.04 1625.26C137.67 1622.68 138.62 1620.17 139.43 1617.63C141.44 1611.28 143.07 1604.78 145.54 1598.62C149.19 1589.54 152.17 1580.22 156.69 1571.42C159.77 1565.43 161.53 1558.69 165 1552.77C166.72 1549.83 169.16 1547.07 169.97 1543.89C171.97 1536.11 176.54 1529.91 181.68 1524.26C186.34 1519.15 190.72 1513.99 194.1 1508.16C198.84 1503.55 204.16 1499.64 209.4 1495.64C209.79 1494.79 210.34 1493.96 211.08 1493.16C223.88 1479.35 235.17 1463.76 252.13 1454.67C252.49 1454.48 252.85 1454.32 253.21 1454.17C259.42 1450.21 264.16 1444.41 270.36 1439.62C284.6 1437.28 296.95 1429.46 309.71 1421.25C309.17 1417.89 309.52 1413.88 307.78 1411.24C306.55 1409.37 305.54 1407.56 304.98 1405.51C302.07 1394.86 299.25 1384.18 296.44 1373.65C297.67 1369.89 299.82 1366.32 299.74 1362.8C299.63 1358.15 305.08 1356.78 304.59 1352.43C309.82 1347.91 311.87 1341.28 315.65 1335.8C316.54 1334.52 317.82 1333.52 318.2 1333.13C319.18 1329.74 320.05 1327.24 320.62 1324.67C321.48 1320.83 323.16 1317.2 322.68 1313.02C322.33 1309.93 322.77 1306.71 323.16 1303.59C323.61 1300 320.97 1297.04 321.91 1293.08C322.61 1290.15 320.75 1286.58 319.91 1283.33C318.35 1277.28 316.7 1271.26 315.09 1265.23C311.5 1263.01 312.1 1258.9 310.76 1255.66C309.31 1252.17 307.61 1248.77 306.27 1245.24C303.92 1239.07 301.76 1232.83 299.49 1226.63C299.18 1225.79 297.1 1226.27 298.11 1223.83C298.99 1221.05 302.63 1220.62 304.82 1220.99C308.95 1221.67 312.43 1220.31 316.14 1219.49C316.69 1219.37 317.23 1219.12 317.78 1219.09C329.39 1218.63 337.25 1216.27 346.32 1210.58C350.56 1207.92 354.64 1204.82 359.2 1202.87C363.43 1201.06 367.26 1198.74 371.23 1196.54C373.62 1195.22 376.53 1194.87 379.09 1193.82C381.81 1192.71 384.39 1191.26 387.04 1189.99C387.54 1189.75 388.24 1189.41 388.66 1189.58C393.32 1191.42 397.18 1188.46 401.63 1187.96C402.04 1183.13 402.42 1178.69 402.96 1172.35C406.1 1168.34 410.42 1162.8 414.68 1157.36C422.02 1159.37 428.65 1161.2 435.28 1162.99C442.1 1164.83 448.93 1166.63 455.59 1168.4C456.33 1167.12 457.04 1166.42 457.14 1165.64C458.17 1157.94 461.06 1150.96 465.26 1144.5C469.38 1138.17 476.43 1134.52 480.39 1128.04C486.21 1126.26 489.61 1121.11 494.39 1117.83C502.88 1111.99 511.49 1106.48 520.41 1101.33C526.14 1098.02 532.85 1096.57 537.83 1091.73C539.05 1090.54 541.68 1089.84 544.14 1091.12C546.97 1092.6 550.14 1093.45 553.18 1094.5C562.92 1097.86 572.54 1101.49 581.84 1105.99C584.91 1107.48 588.38 1108.21 591.74 1108.99C596.94 1110.19 601.67 1108.31 602.76 1103.64C603.62 1099.94 605.63 1097.1 607.25 1093.95C611.61 1085.44 613.7 1076.61 613.18 1066.91C612.95 1062.56 613.06 1058.05 613.69 1053.52C615.57 1040.1 624.81 1030.17 629.33 1015.9C630.22 1019.24 630.73 1020.52 630.86 1021.85C630.96 1022.86 630.42 1023.93 630.46 1024.95C630.73 1031.36 630.07 1037.73 631.35 1044.19C632.12 1048.1 631.57 1052.33 633.04 1056.24C630.18 1058.91 633.94 1061.89 632.53 1064.96C631.15 1067.96 633.79 1070.41 635.6 1072.8C636.12 1073.48 635.7 1074.86 635.72 1075.92C635.75 1077.25 635.46 1078.69 635.88 1079.88C638.27 1086.74 636.85 1093.75 636.62 1100.65C636.23 1112.21 632.92 1123.62 634.75 1135.31C632.28 1138.38 635.34 1141.16 635.27 1142.33C632.44 1156.68 629.12 1169.15 627.82 1182.01C627.31 1187.07 626.1 1192.14 628.3 1196.76C625.37 1202.58 626.86 1208.64 626.21 1214.33C625.08 1224.33 623.32 1234.13 620.62 1243.74C617.89 1253.48 614.43 1263.02 611.51 1272.71C607.83 1284.9 604.76 1297.29 600.71 1309.35C596.37 1322.27 591.54 1335.04 584.71 1346.96C581.97 1351.74 579.38 1356.71 577.53 1361.88C575.02 1368.87 571.92 1375.54 568.46 1382.07C566.49 1385.78 564.27 1389.36 562.59 1392.26C564.13 1402.21 567.59 1410.69 568.29 1420.08C569.02 1429.94 573.76 1439.25 574.21 1449.47C574.51 1456.29 576.48 1463.03 577.7 1469.8C577.8 1470.34 578.09 1470.92 577.98 1471.42C576.95 1476.25 578.43 1480.98 578.42 1485.77C578.42 1492.42 579.36 1499.02 579.15 1505.7C578.99 1510.5 579.73 1515.32 579.99 1519C583.17 1522.47 585.48 1524.99 587.49 1527.18L589.35 1534.15C588.09 1537.18 587.13 1538.89 586.66 1540.73C585.36 1545.83 583.42 1550.98 583.34 1556.13C583.25 1561.38 582.51 1566.1 580.43 1570.88C579.05 1574.04 576.47 1576.57 575.45 1579.61C572.53 1588.24 566.89 1595.31 562.99 1603.34C561.12 1607.2 560.26 1611.56 558.29 1615.36C555.64 1620.48 555.05 1626.11 554.08 1631.51C553.06 1637.2 551.03 1642.59 550.35 1648.47C549.1 1659.32 548.44 1669.92 549.05 1680.9C549.61 1690.95 550.6 1701.04 550.66 1711.17C550.7 1718.1 550.41 1725.22 552.41 1732.1C552.97 1734.04 552.19 1736.34 552.5 1738.4C552.83 1740.57 553.75 1742.63 552.41 1744.78C552.25 1745.03 552.81 1745.72 553.06 1746.27C554.2 1746.86 555.38 1747.47 556.68 1748.15C560.92 1744.73 564.8 1741.6 568.53 1738.58C570.11 1739.44 571.09 1739.97 572.84 1740.92C572.5 1748.71 579.17 1755.04 578.72 1763.65C578.55 1766.89 580.53 1770.18 581.12 1773.53C581.74 1776.97 581.64 1780.53 582.25 1783.96C583.9 1793.29 582.28 1802.04 578.04 1810.4C573.77 1818.82 567.99 1826.2 562.03 1833.01C562.26 1839.16 566.54 1838.41 571.33 1837.74C569.84 1841.72 569.27 1845.07 567.49 1847.58C564.74 1851.47 561.15 1854.76 557.95 1858.34C554.77 1861.88 550.93 1864.08 546.21 1865.06C541.49 1866.03 536.8 1867.28 532.23 1868.79C527.85 1870.24 523.21 1871.56 519.43 1874.06C512.45 1878.69 504.94 1881.56 496.9 1883.46C493.03 1884.37 489.27 1885.93 485.36 1886.42C478.57 1887.27 473.2 1891.69 466.75 1893.25C464.93 1897.42 459.28 1895.17 457.23 1898.94C450.97 1900.92 448.45 1907.22 443.59 1910.9C441.54 1912.46 438.24 1913.46 437.82 1916.84C439.33 1916.23 441.14 1915.95 442.32 1914.95C449.34 1908.94 456.95 1903.84 464.76 1898.93C468.59 1896.53 471.95 1894.19 476.71 1895.44C477.68 1895.7 478.85 1895.19 479.93 1895.02C491.63 1893.19 501.98 1887.15 513.36 1884.32C513.87 1884.19 514.37 1883.92 514.79 1883.6C520.33 1879.31 527.16 1877.48 533.16 1874C536.59 1872.01 541.3 1871.06 545.27 1871.42C551.25 1871.96 555.02 1868.84 558.62 1865.37C562.09 1862.03 565.06 1858.13 567.9 1854.21C570.06 1851.24 571.76 1847.92 573.48 1844.66C575.45 1840.92 576.17 1837.07 573.92 1833.49C572.38 1833.16 571.26 1832.91 568.73 1832.37C570.84 1830.7 572.09 1830.14 572.67 1829.18C576.32 1823.1 579.83 1816.93 583.38 1810.78C582.26 1807.37 586.31 1805.34 585.38 1801.41C584.46 1797.54 585.68 1793.09 586.33 1788.94C587.07 1784.25 582.84 1780.06 585.16 1775.29C582.79 1768.72 583.6 1761.68 581.66 1754.91C575.01 1731.72 568.94 1708.36 562.91 1685C561.48 1679.47 560.49 1673.69 560.4 1668.01C560.31 1662.34 559.84 1656.75 558.99 1651.21C558.21 1646.11 558.27 1641.1 559.27 1636.15C560.05 1632.26 561.72 1628.55 562.53 1624.67C564.59 1614.88 567.97 1605.51 572.44 1596.66C577.78 1586.1 584.53 1576.38 593.03 1568C594.55 1566.5 596.7 1564.96 597.11 1563.12C599.12 1554.06 604.28 1546.51 608.77 1538.39C606.61 1535.78 604.21 1533.76 602.6 1530.89C598.48 1523.57 593.49 1516.75 589.07 1509.58C588 1507.85 587.66 1505.61 587.27 1503.55C587.03 1502.29 587.36 1500.93 587.38 1499.61C587.48 1494.36 587.55 1489.12 587.64 1483.87C586.95 1476.01 583.39 1468.61 583.81 1460.25C584.06 1455.38 580.65 1451.14 581.4 1445.63C582.06 1440.76 579.28 1435.71 579.2 1430.3C579.1 1423.51 576.93 1416.76 575.85 1409.96C575.42 1407.25 574.76 1404.21 575.56 1401.77C576.44 1399.11 578.85 1396.93 580.7 1394.62C581.86 1393.17 583.75 1392.07 584.37 1390.45C587.54 1382.19 590.92 1373.95 593.19 1365.43C594.75 1359.56 596.89 1353.87 598.29 1347.9C601.6 1333.79 603.8 1319.45 607.66 1305.43C610.96 1293.44 613.95 1281.36 617.64 1269.48C619.54 1263.38 620.78 1256.98 623.47 1251.26C627.52 1242.68 630.5 1233.92 632.16 1224.59C633.58 1216.56 635.41 1208.6 637.29 1200.67C639.19 1192.68 640.89 1184.76 636.77 1177.11C639.79 1169.24 642.67 1161.73 645.45 1154.5C653.11 1157.2 659.33 1161.04 663.68 1167.39C667.25 1172.59 671.67 1177.12 675.5 1182.12C677.27 1184.43 679.76 1186.18 682.45 1188.66L684.21 1195.26C682.01 1202.1 675.45 1206.17 672.33 1213.15C676.81 1215.14 680.79 1216.9 685 1218.77C686.31 1221.39 688.4 1224.11 689.02 1227.14C689.77 1230.82 692.03 1233.51 693.52 1236.67C695.14 1240.09 697.64 1243.09 698.11 1247.06C698.22 1247.96 699.62 1248.66 699.87 1249.6C701.16 1254.4 706.73 1255.53 708.28 1259.33C708.56 1263.36 708.79 1266.85 709.07 1270.9C712.34 1271.88 715.36 1272.78 719.2 1273.94C722.52 1283.48 723.31 1295.17 730.08 1304.52C730.98 1304.49 731.77 1304.46 732.95 1304.41C732.89 1308.12 736.24 1311.19 733.91 1314.99C736.54 1320.72 734.1 1326.72 734.82 1332.6C735.49 1338.07 735.01 1343.69 734.95 1349.24C734.87 1357.05 735.65 1364.8 736.87 1372.48C737.49 1376.38 738.64 1380.24 739.93 1383.99C741.16 1387.55 743.59 1390.81 744.28 1394.43C746.46 1405.92 752.48 1415.72 757.6 1426.02C757.17 1422.43 757.24 1418.03 755.08 1415.7C752.05 1412.43 752.4 1408.5 750.76 1405.09C749.12 1401.68 746.84 1398.63 746.18 1394.7C744.77 1386.24 740.29 1378.37 741.26 1369.43C738.14 1361.9 738.58 1353.91 738.64 1346.06C738.69 1338.41 738.26 1330.77 738.76 1323.09C739.22 1315.97 740.23 1308.56 737.1 1301.71L732.67 1299.15C734.29 1291.22 724.39 1285.88 727.18 1277.08C726.34 1276.1 725.24 1275.22 724.7 1274.07C724.03 1272.65 723.81 1271.02 723.4 1269.46C719.84 1268.97 716.98 1268.58 714.03 1268.18C713.51 1265.19 712.21 1262.5 712.82 1260.36C714.51 1254.51 708.76 1251.88 707.94 1247.26C701.93 1243.43 698.89 1237.56 697.12 1230.98C695.61 1230.25 694.34 1229.63 693.17 1229.07L690.7 1219.82C688.69 1217.44 687.37 1215.37 685.56 1213.9C683.97 1212.6 681.83 1211.95 679.67 1210.88C681.21 1209.33 682.65 1208.11 683.82 1206.67C685.88 1204.14 688.31 1201.72 689.61 1198.82C690.9 1195.94 692.02 1191.66 689.51 1189.55C683.87 1184.8 681.07 1178.12 676.45 1172.74C665.12 1159.57 657.64 1144.25 652.24 1127.92C649.91 1120.87 648.67 1113.52 647.69 1106.03C646.57 1097.42 644.42 1089.08 644.4 1080.15C644.37 1067.98 645.1 1055.81 644.57 1043.65C644.23 1035.7 644.76 1027.77 644.48 1019.82C644.27 1013.93 644.41 1008.08 643.43 1002.18C642.76 998.12 642.66 993.42 644.07 989.67C646.97 981.98 650.16 974.39 653.43 966.83C656.1 948.64 662.27 930.95 670.61 914.36C682.6 890.49 699.31 868.23 719.46 850.64C735.57 836.57 754.47 826.29 774.28 818.45C807.54 805.29 849.78 798.25 882.75 814.84C886.78 812.22 890.17 808.8 891.33 804.32C893.83 794.63 899.25 786.68 904.02 778.3C906.74 773.51 910.13 769.1 913.31 764.58C913.72 763.99 914.86 763.92 915.3 763.34C921.44 755.26 929.2 748.76 936.58 741.93C940.79 738.04 945.73 734.92 950.46 731.61C954.25 728.95 959.56 729.79 963.1 726.07C964.27 724.84 966.83 724.96 968.74 724.42C974.81 722.71 981.24 721.9 985.94 717.48C986.81 715.25 987.67 713.02 988.71 710.34C985.33 702.42 985.54 693.29 983.22 684.78C982.57 682.4 982.17 680.02 981.89 677.63C979.37 665.61 979.32 653.19 980.03 640.94C980.16 638.74 980.93 636.98 982.08 635.64C983.13 629.13 984.45 622.77 985.02 616.38C988.93 618.64 992.78 620.86 997.53 623.6C1001.59 641.5 1005.85 660.38 1010.18 679.24C1011.07 683.11 1012.21 686.92 1013.23 690.76C1013.6 692.13 1014.58 693.69 1014.22 694.84C1012.42 700.64 1016.67 705.86 1015.44 711.69C1014.8 714.71 1015.73 718.09 1016.11 721.28C1016.66 725.87 1018.62 730.72 1017.7 734.96C1016.22 741.76 1018.66 748.23 1017.25 755.6C1014.58 760.22 1011.59 765.72 1008.28 771C1005.34 775.69 1003.39 780.65 1002.32 786.1C1000.85 793.62 997.03 800.55 996.44 808.34C996.4 808.85 995.89 809.32 995.62 809.82C992.46 815.56 992.31 822.5 988.23 827.95C987.29 829.21 987.74 831.52 987.67 832.28C990.34 837.46 992.8 841.58 994.64 845.97C997.09 851.79 998.41 858.17 1001.46 863.6C1003.25 866.78 1003.74 870.53 1005.75 873.15C1008.1 876.22 1008.66 879.57 1009.9 882.87C1011.13 886.14 1014.09 888.64 1014.22 892.46C1014.23 892.84 1015.06 893.12 1015.31 893.57C1018.33 898.88 1021.53 904.26 1023.76 909.78C1027.01 917.85 1031.24 925.46 1034.3 933.63C1035.59 937.08 1036.71 940.98 1038.7 944.03C1042.79 950.27 1044.89 957.57 1049.12 962.85C1051.41 963.68 1053.14 964.3 1054.49 964.79C1057.54 976.22 1060.5 987.16 1063.3 998.14C1063.5 998.94 1062.56 1000.04 1062.2 1000.88C1065.39 1004.12 1069.13 1004.54 1072.87 1005.17C1079.34 1006.26 1085.75 1007.76 1092.23 1008.74C1100.41 1009.97 1106.71 1013.73 1111.97 1020.27C1116.4 1025.78 1121.6 1030.63 1125.66 1036.55C1128.29 1040.39 1132.23 1043.33 1135.58 1046.67C1140.96 1047.62 1146.15 1049.07 1150.88 1051.45C1158.01 1055.03 1164.11 1060.17 1170.3 1065.22C1176.66 1070.4 1183.71 1074.73 1190.23 1079.73C1198.8 1086.3 1206.58 1094.11 1215.75 1099.65C1225.04 1105.27 1232.92 1112.71 1242.23 1118.17C1244.75 1119.64 1246.96 1121.63 1249.49 1123.52C1250.74 1123.38 1252.29 1123.22 1253.79 1123.06L1254.6 1126.09C1264.02 1130.86 1272.97 1135.4 1282.37 1140.16C1282.76 1132.78 1275.56 1128.5 1277.1 1121.84C1284.02 1125.31 1290.85 1129.08 1297.97 1132.17C1303.59 1134.61 1309.64 1136.04 1315.36 1138.28C1317.72 1139.2 1319.32 1139.13 1321.18 1137.06C1312.86 1133.62 1304.73 1130.49 1296.79 1126.93L1296.9 1126.98Z" fill="#4FC4FF"/>
</svg>
