<svg width="1211" height="1977" viewBox="0 0 1211 1977" fill="none" xmlns="http://www.w3.org/2000/svg">
<path d="M1210 1033.11L1208.45 1032.63C1207.53 1032.35 1206.8 1031.83 1206.23 1031.06C1195.9 1016.89 1184.43 1003.73 1171.76 991.57C1171.3 991.11 1170.77 990.95 1170.15 991.02C1146.8 993.92 1143.84 963.1 1115.38 972.8C1114.52 973.08 1113.76 972.93 1113.07 972.37C1089.87 953.23 1060.25 936.14 1036.48 921.55C1016.19 909.09 998.71 894.45 980.87 879.46C974.72 874.32 969.65 868.64 965.67 862.44C964.17 860.14 961.01 859.65 958.88 861.41C953.68 865.68 950.09 870.98 948.1 877.36C947.79 878.36 947.11 878.81 946.07 878.72C901.11 875.34 858.32 869.17 820.68 845.36C819.89 844.86 819.95 844.47 820.87 844.27C828.91 842.43 848.26 841.78 852.51 834.61C854.47 831.33 851.98 827.2 848.15 827.4C831.06 828.29 829.62 816.52 816.26 812.75C815.28 812.48 814.79 812.84 814.75 813.84C814.42 824.23 829.39 830.83 837.28 832.74C838.02 832.94 838.77 832.94 839.51 832.77C840.15 832.65 840.76 832.72 841.39 833C842.14 833.37 842.1 833.59 841.26 833.71C829.32 835.15 818.1 835.15 811.78 842.23C811.08 842.99 810.22 843.36 809.22 843.37C803.76 843.27 798.55 842.07 793.59 839.79C792.81 839.43 791.97 839.26 791.11 839.26C772.62 839.55 758.71 820.11 742.02 811.66C736.22 808.72 730.44 805.76 724.69 802.76C697.73 788.71 686.21 767.21 670.77 742.47C665.47 734 665.16 723.35 659.88 713.78C649.75 695.42 631.42 660.73 636.18 642.13C639.92 627.47 655.31 593.74 672.61 590.41C683.31 588.36 699.82 597.84 709.92 602.13C722.45 607.46 740.46 630.69 745.08 637.72C756.52 655.1 754.13 673.86 754.75 692.66C754.8 694 756.48 694.6 757.34 693.57L770.24 678.28C771.29 677.02 773.33 677.77 773.34 679.41C773.36 686.06 775.04 692.27 778.38 698.04C778.59 698.39 779.14 698.19 779.07 697.76L774.45 671.87C774.28 670.93 773.12 670.6 772.47 671.29L760.47 684.3C759.38 685.49 757.39 684.59 757.57 682.98C760.06 660.71 756.08 643.56 741.76 626.3C731.78 614.26 722.96 600.41 712.52 596.7C710.32 595.91 708.35 594.84 706.62 593.53C698.49 587.35 688.89 584.71 681.56 578.56C674.72 572.86 670.42 568.89 668.66 566.68C653 547.22 636.92 531.94 620.44 520.83C592.73 502.14 575.56 487.57 567.48 457.16C567.22 456.13 568.43 455.38 569.22 456.09C578.1 464.03 584.79 460.34 594.58 463.56C611.34 469.07 628.49 472.6 645.25 481.84C669.86 495.37 691.76 503.16 718.52 508.61C734.59 511.89 738.34 524.44 750.5 532.29C772.57 546.53 798.22 559.67 818.51 571.84C844.76 587.63 872.14 603.08 900.66 618.22C902.61 619.25 905.02 618.24 905.67 616.14L906.17 614.51C906.68 612.86 907.55 612.64 908.79 613.85C921.54 626.4 936.66 634.92 954.15 639.38C957.21 640.18 960.43 638.61 961.64 635.68L968.14 620.28C968.9 618.47 971.19 617.85 972.74 619.08C979.93 624.77 987.92 628.53 996.74 630.41C997.63 630.6 998.07 631.14 998.12 632.01C998.38 636.86 998.44 641.71 998.34 646.6C998.11 656.51 991.78 666.69 1006.33 671.72C1009.06 672.65 1009.32 672.18 1007.14 670.3C1001.27 665.27 1001.4 661.31 1003.46 653.7C1005.77 645.07 1006.23 636.58 1004.82 628.3C1004.49 626.3 1003.3 625.21 1001.29 625.03C989.78 624.02 980.47 619.16 973.3 610.43C972.66 609.63 971.49 609.38 970.57 609.88C961.85 614.3 957.07 621.51 956.21 631.57C956.14 632.44 955.32 633.05 954.46 632.87C934.01 628.5 921.54 616.81 906.46 603.79C903.65 601.34 899.32 603.83 899.99 607.52L900.45 610.05C900.75 611.61 900.18 612.04 898.77 611.29C872.96 597.62 851.11 586.05 821.21 570.89C794.62 557.44 771.49 542.43 751.83 525.88C747.17 521.97 744.43 516.01 743.66 507.98C743.57 507.06 743.97 506.61 744.87 506.57C769.21 505.5 793.17 501.75 816.7 495.28C826.25 492.67 829.46 485.7 841.69 490.87C842.48 491.2 843.12 491.74 843.59 492.46C851.99 505.51 860.84 510.02 876.43 518.88C887.22 525.02 891.16 536.13 902.77 540.34C911.62 543.53 923.81 542.05 931.38 546.68C933.17 547.78 935.44 546.38 935.28 544.29L934.71 537.36C934.54 535.5 934.84 535.36 935.6 537C935.86 537.57 935.96 538.26 935.92 539.03C935.88 539.73 936.01 540.41 936.35 541C942.31 551.61 951.75 557.19 964.7 557.73C966.23 557.8 967.54 556.71 967.78 555.2C968.01 553.69 967.05 552.24 965.59 551.85C954.27 548.82 940.87 546.79 939.58 532.85C939.42 531.02 937.68 529.76 935.91 530.2C932.12 531.13 929.95 533.4 929.38 537.02C929.24 537.84 928.77 538.24 927.97 538.25C916.33 538.4 904.07 537.33 895.25 528.72C879 512.79 859.56 508.1 846.1 489.63C845.55 488.89 844.83 488.35 843.94 488.05C839.26 486.35 834.4 486.06 829.4 487.17C807.83 492.03 784.63 493.62 762.65 500.28C755.86 502.36 736.15 499.51 725.34 499.48C704.35 499.48 651.52 488.21 644.31 463.62C644.05 462.79 643.45 462.12 642.66 461.79C637.52 459.63 632.23 458.12 626.81 457.25C612.12 454.91 597.69 451.44 583.49 446.84C582.63 446.55 581.79 445.63 580.96 444.05C580.52 443.23 579.93 442.55 579.17 442.03C557.39 426.78 568.28 405.23 552.54 389.58C533.47 370.56 513.55 352.41 492.77 335.11C492.06 334.52 491.6 333.77 491.46 332.84C490 323.85 489.29 306.55 478.73 303.21C477.86 302.94 477.93 301.7 478.82 301.51C493.77 298.06 507.65 300.13 520.53 307.72C537.31 317.57 541.82 306.46 557.3 303.46C572.44 300.53 591.52 298.88 614.55 298.52C643.88 298.06 670.49 298.18 695.08 307.31C730.52 320.41 756.86 331.8 784.41 355.96C786.31 357.64 789.3 356.78 790.05 354.36L794.16 341.22C794.73 339.36 797.16 338.95 798.32 340.52L815.92 364.49C816.1 364.75 816.45 364.83 816.72 364.68C817 364.51 817.1 364.19 816.99 363.9C813.42 355.04 796.04 318.6 786.44 346.58C785.57 349.13 784.13 349.49 782.14 347.67C755.68 323.47 726.62 310.38 689.01 298.42C682.16 298.01 675.65 296.37 669.57 293.74C665.33 292.5 661.2 291.57 656.61 291.43C628.01 290.47 599.48 291.4 571.04 294.23C560.93 295.23 551.18 301.57 540.77 304.09C525.87 307.67 516.22 298.66 505.09 297.07C500.41 296.4 489.6 296.01 472.72 295.84C471.86 295.84 471.03 295.55 470.39 295.01C466.19 291.65 461.4 289.48 456 288.51C455.05 288.33 454.32 287.82 453.8 286.97C432.98 252.61 446.2 212.23 463.57 179.74C473.82 160.56 498.25 151.46 506.87 132.23C510.19 124.87 550.02 12.29 554.07 0.0500002H509.11C508.79 1.75 484.93 106.21 484.59 107.86C477.6 141.39 434.46 144.67 410.96 127.82C407.64 125.45 402.97 127.26 402.11 131.25C398.2 149.63 384.24 163.67 370.42 175.52C369.76 176.09 369 176.32 368.13 176.22L271.17 166.25C270.22 166.16 269.45 165.49 269.18 164.6C266.63 156.25 264.22 143.26 256.36 138.37C255.51 137.85 254.68 137.85 253.85 138.31C241.91 145.07 206.68 171.11 190.18 161.97C173.28 152.6 166.23 155.43 149.66 158.08C144.88 158.85 141.83 157.45 138.32 154.56C137.61 153.97 136.7 153.66 135.77 153.69C126.74 153.96 118.4 164.15 110.65 168.7C109.88 169.15 108.98 169.25 108.14 168.99C82.7402 161.08 58.6902 179.89 40.3402 194.54C27.7502 204.61 13.0402 212.61 0.130229 223.42C-0.0197712 223.55 -0.0497712 223.74 0.0602288 223.92C0.160229 224.07 0.340229 224.12 0.510229 224.03C19.6702 214.46 37.8902 203.22 55.1302 190.28C64.4002 183.33 76.8302 178.27 92.4502 175.06C103.26 172.84 107.22 180.61 118.35 171.91C122.59 168.59 126.9 165.26 131.26 161.91C131.97 161.38 132.9 161.26 133.72 161.58L144.56 165.96C145.2 166.22 145.91 166.26 146.55 166.11C157.57 163.75 167.59 161.84 178.78 165.74C188.3 169.1 197.13 173.84 207.45 170.69C223.87 165.65 238.76 158.02 252.08 147.72C253.45 146.65 255.46 147.29 255.99 148.95L262.63 170.43C263.56 173.48 266.26 175.63 269.45 175.84C300.75 178.03 330.81 180.68 359.62 183.78C363.79 184.23 369.24 187.92 373.36 184.27C386.84 172.15 398.76 157.65 409.06 140.72C409.49 139.99 410.44 139.71 411.23 140.04C420.77 144.27 430.74 146.91 441.13 147.99C442.07 148.11 442.82 148.86 442.88 149.79C443.46 158.16 444.74 164.94 439.74 172.4C432.52 183.23 423.81 192.83 413.67 201.2C412.94 201.81 412.59 202.56 412.56 203.5C412.05 227.64 384.62 235.38 371.33 252.42C354.85 273.54 344.49 291.94 316.67 300.85C303.65 305.03 291.39 311.32 278.55 314.84C258.99 320.17 239.52 326.83 220.2 334.76C218.12 335.62 217.22 338.07 218.25 340.05C224.32 351.81 218.85 364.99 213.17 376.07C212.77 376.9 212.65 377.75 212.86 378.65C218.6 404.17 202.65 419.64 188.78 437.51C188.21 438.25 188.01 439.08 188.15 440.02C191.41 458.85 201.81 471.11 215.56 483.57C227.07 493.99 226.95 507.55 218.77 520.01C210.98 531.84 211.6 543.56 207.79 555.19C203.82 567.34 200.21 579.6 197.01 591.95C196.97 592.08 197.05 592.19 197.24 592.34C197.41 592.45 197.55 592.55 197.69 592.65C197.88 592.79 198.1 592.81 198.13 592.7C204.97 575.17 212.27 559.76 214.84 540.8C217.48 521.4 233.15 515.16 227.64 492.53C226.7 488.67 224.39 484.97 220.71 481.42C206.61 467.82 197.36 459.5 193.67 441.32C193.5 440.46 193.74 439.59 194.34 438.97C210.97 421.29 224.02 402.28 218.83 377.96C218.64 377.07 218.78 376.25 219.22 375.47C225.65 364.6 227.61 353.01 225.13 340.77C224.97 339.89 225.27 339.29 226.09 338.97C244.57 331.35 263.56 325.15 283.01 320.36C296.82 316.97 308.2 309.52 323.43 307.68C324.27 307.56 324.9 308.42 324.55 309.18L323.83 310.77C323.39 311.73 323.46 312.64 324.01 313.53C326.78 317.8 330.21 321.42 334.28 324.43C334.93 324.92 335.34 325.56 335.46 326.38C337.59 339.26 332.63 356.19 330.22 369.07C330.03 369.96 329.65 370.73 329.02 371.37C321.43 379.04 316.14 390.98 312.21 396.99C305.73 406.93 301.31 414.08 298.96 418.44C289.1 436.71 291.68 462.52 296.74 483.14C296.91 483.8 297.2 484.26 297.65 484.48C298.32 484.83 298.54 484.67 298.36 483.95C293.97 466.64 295.53 456.28 296.26 440.92C297.34 418.83 314.79 396.74 331.46 383.39C334.1 381.27 335.53 379.41 335.73 377.83C337.43 364.64 339.34 351.45 341.43 338.32C343.44 325.74 342.95 310.04 345.93 295.89C346.12 295 346.56 294.22 347.22 293.58C356.59 284.53 365.52 273.65 373.94 260.98C385.35 243.82 402.79 245.08 415.41 230.45C422.5 222.28 415.09 205.74 427.13 205.28C428.15 205.25 428.6 205.73 428.49 206.76C426.37 224.48 422.75 241.91 417.62 259.05C417.24 260.37 417.56 261.48 417.84 262.74C418.02 263.57 417.94 264.38 417.61 265.17C412.82 276.69 406.87 287.54 399.68 297.72C399.21 298.41 399.37 298.8 400.2 298.92C409.55 300.39 418.79 302.32 427.92 304.7C446.88 309.62 469.38 333.66 475.64 351.89C475.93 352.73 476.48 353.36 477.28 353.75L483.3 356.81C484.05 357.18 484.68 357.75 485.16 358.42C494.22 371.3 499.15 379.84 499.92 383.96C505.16 412.14 485.17 440.72 467.65 460.54C466.07 462.32 465.3 464.71 465.55 467.08C467.06 481.49 468.11 496.39 468.62 511.82C468.67 513.07 467.42 514.79 464.86 517.02C453.94 526.51 425.76 552.19 419.35 569.63C410.78 593.07 371.83 604.22 349.04 609.22C348.03 609.43 347.24 610.22 347.03 611.25C345.07 620.8 347.22 632.93 333.68 635.83C325.97 637.51 303.88 642.21 293.21 638.29C282.85 634.49 253.15 635.41 258.71 615.41C261.21 606.37 261.61 598.16 259.94 590.77C259.25 587.68 257.59 587.03 254.97 588.81C239.34 599.32 227.21 613.04 218.52 629.94C218.47 630.01 218.5 630.11 218.57 630.16C218.64 630.21 218.75 630.22 218.8 630.15L255.32 592.14C256.71 590.7 257.4 591 257.33 592.99C256.87 608.12 245.27 617.86 258.77 631.71C261.24 634.23 263.67 636.81 266.1 639.46C266.72 640.14 267.5 640.52 268.41 640.63C274.81 641.34 281.25 641.8 287.71 642C294.8 642.23 297.12 647.2 304.92 646.7C318.03 645.85 340.53 646.94 349.09 635.66C352.57 631.1 353.54 623 355.02 617.07C355.23 616.19 355.73 615.51 356.54 615.04C360.71 612.61 365.14 610.73 369.77 609.43C392.43 602.98 407.89 591.24 428.13 580.62C428.92 580.2 429.26 579.27 428.95 578.43C427.13 573.7 426.84 570.25 428.1 568.11C433.91 558.31 462.58 514.9 476.11 520.71C479.25 522.08 482.67 519.31 481.98 515.93C478.87 500.36 476.35 483.25 483.05 468.04C491.32 449.22 509.65 428.93 531.01 425.39C532.04 425.22 532.65 425.67 532.82 426.7C534.97 438.95 539.36 449.71 546.03 458.95C555.42 472.05 566.65 484.8 565.48 500.91C564.81 510.19 564.59 519.5 564.8 528.79C564.84 529.69 565.07 530.54 565.54 531.35C574.46 546.26 595.47 554.6 598.85 573.79C600.75 584.61 597.01 598.99 596.44 606.26C595.14 622.91 592.61 646.8 588.84 677.99C587.13 692.21 583.52 704.33 577.98 714.35C577.55 715.11 577.51 716.05 577.87 716.85C585.11 732.54 590.07 746.69 582.61 762.99C577.49 774.09 573.86 780.85 571.69 783.23C538.22 819.64 518.98 865.85 529.87 915.53C530.13 916.85 529.57 918.17 528.43 918.88L495.02 939.7C494.33 940.15 493.57 940.32 492.75 940.27C491.6 940.17 491.03 940.89 491.1 942.46C491.1 943.18 490.78 943.86 490.22 944.29C475.91 955.35 468.57 964.25 475.23 983.06C475.58 984.06 475.29 985.21 474.48 985.88C466.54 992.72 452.16 1001.95 447.99 1012.89C443.23 1025.25 437.49 1043.07 430.77 1066.27C430.5 1067.16 430.45 1068.07 430.59 1069C431.55 1075.22 427.71 1075.73 423.47 1078.31C405.43 1089.35 387.32 1100.27 369.17 1111.1C343.32 1126.51 318.22 1162.72 335.71 1192.29C346.1 1209.9 371.07 1214.91 381.19 1231.14C381.77 1232.07 381.58 1232.78 380.63 1233.33C348.32 1251.41 303.62 1261.36 267.75 1262.71C266.79 1262.73 266.11 1263.18 265.67 1264.05C262.94 1269.56 263.25 1275.09 266.58 1280.61C275.53 1295.42 288.1 1311.48 293.81 1325.52C301.81 1345.21 303.12 1366.14 297.75 1388.35C296.76 1392.39 298.02 1395.13 301.52 1396.56C302.29 1396.86 303.01 1396.76 303.7 1396.28L319.27 1385.21C319.97 1384.71 320.98 1384.99 321.27 1385.8C324.91 1395.26 317.73 1415.5 315.48 1425.68C315 1427.8 316.66 1429.78 318.82 1429.76C320.52 1429.74 321.65 1430.55 322.22 1432.16C323.92 1436.91 319.9 1445.19 322.75 1452.83C323.62 1455.14 324.27 1455.08 324.7 1452.65L327.84 1435.27C328.3 1432.76 326.94 1430.25 324.6 1429.27L320.27 1427.45C319.18 1426.97 318.82 1426.17 319.26 1425.04C324.98 1410.1 335.77 1395.07 325.96 1379.11C325.33 1378.08 324.09 1377.61 322.92 1377.97L315.99 1380.12C315.01 1380.42 314.48 1380.06 314.49 1379.02C314.2 1365.39 312.28 1352.03 308.72 1338.94C302.92 1317.54 288.95 1297.25 276.4 1277.72C275.72 1276.68 276.01 1276.08 277.25 1275.91C313.1 1271.08 347.46 1261.11 380.29 1246C417.31 1228.97 359.03 1202.53 349.19 1191.27C345.81 1187.41 344.59 1182.95 345.54 1177.92C350.34 1152.92 362.85 1138.25 382.57 1119.8C397.02 1106.31 412.9 1097.89 429.97 1088.22C442.65 1081.03 443.15 1069.13 445.21 1055.16C446.9 1043.6 452.47 1034.11 457.14 1023.61C463.64 1008.96 474.59 999.91 487.76 991.87C488.61 991.35 489.1 990.41 489.07 989.4C488.73 980.61 480.67 976.55 489.32 967.31C497.5 958.59 528.76 927.39 540.28 927.6C549.85 927.79 551 921.18 549.61 913.19C547.08 898.64 546.4 885.26 547.6 873.03C549.48 853.94 564.35 805.79 588.23 802.1C591.28 801.63 594.13 803.75 594.57 806.81C598.1 832.22 598.12 857.93 594.65 883.93C593.64 891.5 594.7 903.01 597.79 918.45C597.96 919.31 598.5 919.79 599.35 919.91C616.26 922.13 633.19 924.12 650.16 925.87C673.75 928.28 694.95 946.91 699.12 970.51C705.57 1006.8 723.71 1008.85 753.72 1022.81C754.98 1023.4 755.27 1025.07 754.23 1026.01C742.03 1037.23 735.23 1050.92 733.82 1067.05C732.82 1078.33 729.62 1086.75 727.62 1097.17C725.47 1108.24 716.65 1114.38 719.96 1126.7C722.53 1136.2 725.09 1145.7 727.68 1155.22C729.03 1160.27 728.81 1163.88 727.01 1166.08C703.17 1195.4 675.03 1228.31 664.95 1264.51C664.33 1266.71 662.51 1268.33 660.27 1268.7C652.6 1269.9 644.6 1271.03 636.28 1272.09C628.44 1273.1 613.89 1283.36 608.97 1288.61C599.84 1298.36 595.27 1310.3 595.25 1324.47C595.25 1324.84 595.14 1325.21 594.9 1325.51L570.44 1359.55C569.88 1360.33 568.85 1360.61 567.99 1360.23C566.65 1359.62 565.81 1358.52 565.47 1356.92C564.75 1353.65 560.71 1352.49 558.37 1354.87C546.71 1366.66 536.66 1380.16 529.6 1395.06C519.88 1415.61 477.7 1407.57 473.09 1430.01C472.89 1430.93 472.43 1431.68 471.71 1432.26C465.31 1437.45 449.27 1444.44 449.61 1453.12C449.63 1453.99 449.36 1454.86 448.8 1455.55C440.01 1466.82 429.73 1477.6 418.01 1487.93C416.39 1489.36 415.37 1491.28 414.96 1493.72C414.74 1494.89 415.18 1495.17 416.19 1494.59C428.53 1487.38 450.95 1464.47 455.18 1451.1C455.33 1450.63 455.61 1450.26 455.99 1449.97L474.3 1436.55C475.23 1435.86 475.8 1434.94 476.02 1433.77C476.86 1429.17 479.05 1426.36 482.61 1425.36C497.99 1420.98 513.52 1417.05 528.44 1411.18C529.35 1410.83 530.1 1410.17 530.56 1409.33C538.8 1394.7 548.44 1381.05 559.47 1368.4C560.15 1367.6 561 1367.35 562.03 1367.66L566.55 1369.05C567.44 1369.33 568.28 1369.21 569.05 1368.7C573.55 1365.75 576.81 1362.72 578.81 1359.69C586.5 1348.08 594.62 1336.73 603.17 1325.59C603.69 1324.94 603.8 1324.09 603.49 1323.33L601.56 1318.48C601.15 1317.46 601.08 1316.4 601.38 1315.32C609.43 1286.57 631.54 1271.65 660.61 1282.56C665.64 1284.43 671.95 1282.98 672.54 1277.35C674.47 1258.3 679.99 1242.61 689.06 1230.25C703.78 1210.17 718.72 1190.25 733.88 1170.45C734.29 1169.95 734.6 1169.32 734.8 1168.69L737.06 1161.36C737.55 1159.78 738.13 1159.76 738.79 1161.26C748.75 1183.71 744.76 1240.56 717.12 1250.45C716.32 1250.72 715.63 1251.26 715.16 1251.95C712.73 1255.37 713.44 1258.47 717.33 1261.24C759.24 1291.14 801.24 1309.29 799.81 1369C799.23 1394.13 793.08 1417.74 781.36 1439.83C775.44 1451 784.86 1455.63 794.82 1455.39C803.79 1455.19 813.64 1457.19 824.34 1461.41C846.23 1470.08 860.06 1475.78 865.8 1478.5C902.59 1495.9 927.15 1531.73 952.45 1563.3C962.36 1575.67 948.04 1612.15 942.62 1625.37C941.47 1628.18 943.74 1631.18 946.74 1630.84C953.76 1630.07 960.61 1630.63 967.28 1632.48C968.23 1632.75 968.84 1633.68 968.76 1634.66C967.98 1644.11 976.37 1648.22 982.19 1653.52C988.29 1659.09 989.67 1666.13 991.12 1673.13C992.19 1674.22 993.17 1675.37 994.12 1676.54C997.39 1679.82 1000.06 1683.53 1002.24 1687.53C1004.35 1689.55 1006.24 1691.73 1007.92 1694.06C1007.99 1694.12 1008.06 1694.18 1008.13 1694.25C1008.26 1694.37 1008.37 1694.49 1008.5 1694.61C1009.25 1695.19 1010 1695.77 1010.73 1696.38C1010.7 1696.27 1010.65 1696.16 1010.57 1696.05C1003.6 1686.46 998.52 1676.18 995.31 1665.21C992.49 1655.6 987.9 1651.57 979.69 1647.23C975.02 1644.76 969.53 1640.65 970.89 1635.58C972.13 1630.99 970.37 1628.58 965.65 1628.33L948.52 1627.45C947.84 1627.41 947.39 1626.73 947.65 1626.09C954.83 1608.95 959.5 1591.15 961.7 1572.65C961.79 1571.79 962.25 1571.41 963.11 1571.53C973.83 1572.85 984.36 1575 994.71 1577.98C1016.11 1584.2 1031.63 1621.18 1035.11 1644.45C1035.24 1645.32 1035.61 1646.19 1036.2 1646.89C1049.44 1663.1 1056.77 1681.4 1058.18 1701.82C1058.86 1711.75 1056.29 1724.38 1055.32 1735.27C1053.79 1752.37 1047.51 1765.67 1039.53 1780.01C1035.61 1787.03 1034.51 1795.95 1028.48 1802.92C1024.55 1807.46 1024.37 1811.23 1028.11 1815.6C1028.39 1815.92 1028.77 1816.15 1029.19 1816.19L1036.95 1817.14C1037.84 1817.24 1038.38 1817.72 1038.6 1818.6C1039.94 1823.78 1040.03 1827.41 1038.91 1829.45C1034.01 1838.35 1032.58 1847.74 1034.6 1857.62C1034.8 1858.57 1034.41 1859.17 1033.45 1859.39C1008.29 1864.98 984.84 1875.79 960.1 1883.84C958.6 1884.33 958.13 1883.81 958.67 1882.33C960.59 1877.03 961.17 1871.6 960.43 1866.08C960.03 1863.08 956.61 1861.6 954.13 1863.3L947.85 1867.72C947.01 1868.3 946.11 1868.59 945.1 1868.63C943.4 1868.68 941.69 1868.74 939.99 1868.81C938.41 1869.32 936.81 1869.75 935.19 1870.13C929.12 1872.18 922.77 1873.3 916.55 1873.3C916.08 1873.3 915.61 1873.27 915.14 1873.26C915.5 1874.36 916.6 1875.07 917.75 1874.98L944.49 1872.64C944.94 1872.58 945.38 1872.45 945.82 1872.24L952.83 1868.53C954.21 1867.78 954.89 1868.19 954.89 1869.77C954.86 1877.35 952.52 1884.11 947.85 1890C946.78 1891.34 948.08 1893.26 949.72 1892.79C970.91 1886.81 991.64 1879.45 1011.9 1870.71C1012.62 1870.42 1013.26 1871.24 1012.78 1871.87L999.04 1889.12C997.05 1891.64 998.56 1895.35 1001.75 1895.73L1018.51 1897.79C1022.36 1898.26 1023.28 1900.15 1021.25 1903.46C1014.68 1914.06 1007.03 1923.87 998.33 1932.89C998.28 1932.96 998.26 1933.01 998.3 1933.08C998.45 1933.33 998.67 1933.48 998.94 1933.54C999.18 1933.59 999.41 1933.51 999.6 1933.37C1010.93 1923.84 1018.8 1909.87 1028.52 1898.37C1030.32 1896.25 1029.07 1892.96 1026.3 1892.6L1007 1890.11C1005.59 1889.93 1005.38 1889.3 1006.31 1888.23L1023.37 1868.79C1023.56 1868.56 1023.8 1868.41 1024.06 1868.31L1040.67 1862.64C1041.83 1862.25 1042.41 1860.99 1041.98 1859.88C1036.18 1845.01 1042.13 1838.22 1044.39 1825.08C1045.61 1817.84 1043.37 1813.35 1036.78 1810.49C1035.87 1810.09 1035.61 1809.44 1035.99 1808.49L1062.06 1743.66C1062.94 1741.46 1065.83 1740.94 1067.41 1742.72C1082.68 1759.88 1088.58 1780.04 1085.04 1803.21C1082.61 1819.11 1080.66 1829.67 1082.74 1845.78C1084.34 1858.15 1084.16 1871.03 1088.06 1883.68C1088.31 1884.53 1088.82 1885.32 1089.53 1885.91C1098.59 1893.73 1107.18 1903.57 1107.39 1916.31C1107.58 1926.06 1106.57 1935.78 1104.42 1945.44C1104.18 1946.51 1104.88 1947.59 1105.95 1947.84C1109.23 1948.56 1120.49 1941.62 1127.45 1941.78C1128.39 1941.81 1129.21 1942.15 1129.91 1942.77C1138.63 1950.6 1144.97 1960.9 1148.99 1973.72C1149.38 1974.99 1150.27 1975.91 1151.6 1976.5C1151.45 1975.69 1151.31 1974.87 1151.18 1974.05C1150.56 1972.21 1150.01 1970.34 1149.55 1968.45C1148.28 1966.22 1147.16 1963.89 1146.18 1961.49C1144.39 1958.32 1142.92 1954.97 1141.76 1951.5C1140.89 1950.56 1140.06 1949.6 1139.28 1948.61C1139.28 1948.61 1139.27 1948.61 1139.27 1948.6C1135.37 1945.02 1132.23 1940.85 1129.73 1936.32C1122.24 1934.96 1115.73 1936.94 1110.16 1942.22C1109.43 1942.92 1108.25 1942.35 1108.32 1941.37C1109.02 1930.52 1109.28 1919.58 1109.14 1908.56C1108.87 1886.48 1091.74 1877.95 1089.91 1858.96C1088.52 1844.44 1085.97 1816.4 1093.03 1803.56C1097.68 1795.1 1101.61 1786.25 1104.77 1777.01C1105.08 1776.1 1105.66 1775.44 1106.49 1774.98C1126.98 1763.81 1110.26 1746.67 1099.87 1735.53C1077.29 1711.29 1083 1691.26 1097.18 1664.63C1100.46 1658.45 1101.31 1650.58 1095.15 1646.67C1082.68 1638.8 1070.56 1632.88 1060.22 1621.91C1059.83 1621.5 1060.23 1620.85 1060.76 1620.99L1108.31 1634.66C1109.39 1634.97 1110.26 1634.69 1110.93 1633.8C1115.98 1627.39 1119.61 1620.75 1126.05 1615.51C1137.66 1606.12 1148.04 1595.54 1157.25 1583.77C1157.53 1583.41 1157.9 1583.13 1158.32 1582.93C1158.74 1582.48 1159.16 1582.02 1159.59 1581.59C1161.94 1579.24 1164.56 1577.1 1167.35 1575.16C1167.89 1573.68 1167.46 1573.49 1166.01 1574.65C1155.29 1583.22 1145 1592.27 1135.13 1601.8C1125.4 1611.17 1114.25 1617.39 1103.44 1625.54C1102.66 1626.11 1101.82 1626.31 1100.89 1626.16C1089.67 1624.31 1077.48 1621.59 1064.32 1618.03C1039.47 1611.24 1033.26 1575.11 1021.04 1553.92C1020.53 1553.04 1019.82 1552.83 1018.93 1553.3C1010.22 1557.86 998.29 1551.51 991.32 1546.49C980.86 1538.98 974.32 1524.4 967.61 1512.65C956.87 1493.76 932.86 1497.4 922.16 1474.26C921.78 1473.45 921.19 1472.75 920.41 1472.28C901.01 1460.29 878.38 1453.87 858.56 1443.71C848.67 1438.65 829.39 1425 836.7 1411.15C850.84 1384.39 853.82 1358 845.71 1331.98C841.66 1319 829.26 1308.48 822.16 1299.31C821.6 1298.59 821.44 1297.62 821.77 1296.75C825.17 1287.48 830.7 1278.6 826.32 1268.16C826.01 1267.4 825.44 1266.91 824.65 1266.67L780.63 1253.11C779.37 1252.72 779.31 1250.95 780.57 1250.5C798.8 1244.15 816.98 1261.77 834.41 1266.51C853.78 1271.76 864.75 1282.09 877.62 1298.83C886.37 1310.18 896.72 1314.2 910.44 1313.45C911.37 1313.42 912.22 1313.65 912.97 1314.2C936.13 1330.97 957.76 1357.73 989.54 1349.95C993.93 1348.86 998.47 1351.01 1000.44 1355.06C1002.16 1358.61 1003.58 1362.32 1007.34 1365.04C1013.54 1369.48 1024.18 1374.77 1024.68 1383.52C1025.66 1400.87 1035.17 1403.31 1047.08 1411.53C1053.96 1416.27 1055.49 1424.01 1064.67 1427.79C1064.85 1427.86 1065.02 1427.88 1065.18 1427.89C1063.82 1426.22 1062.5 1424.53 1061.2 1422.81C1055.85 1419.57 1051.88 1414.97 1050.43 1408.36C1049.16 1407.29 1047.71 1406.46 1045.99 1406.05C1043.48 1405.45 1041.87 1404.04 1041.01 1402.29C1038.37 1401.06 1036.45 1398.53 1035.56 1395.69C1032.78 1393.11 1030.81 1390.15 1030.69 1386.76C1030.07 1370.09 1019.11 1367.41 1008.36 1359.67C1007.63 1359.16 1007.11 1358.42 1006.82 1357.58L1003.25 1346.59C1003.03 1345.89 1003.25 1345.44 1003.98 1345.23L1025.78 1339.52C1027.13 1339.16 1028.23 1340.62 1027.52 1341.81C1023.44 1348.81 1025.1 1353.4 1032.44 1355.6C1033.45 1355.88 1034.31 1356.52 1034.91 1357.37C1044.96 1371.71 1061.88 1375.48 1076.18 1379.28C1077.25 1379.56 1077.64 1379.34 1077.4 1378.64C1074.5 1378.47 1072.48 1377.01 1071.33 1375.01C1062.12 1373.5 1053 1371.02 1045.71 1364.93C1044.51 1363.93 1043.81 1362.54 1043.53 1361.05C1041.2 1359.16 1039.02 1357.03 1036.98 1354.67C1036.3 1353.89 1035.47 1353.31 1034.48 1352.98L1028.13 1350.74C1026.99 1350.33 1026.51 1349 1027.09 1347.95L1033.1 1337.32C1034.24 1335.31 1032.26 1332.95 1030.09 1333.75C1015.95 1338.85 979.6 1348.02 966.49 1340.47C951.18 1331.64 937.12 1321.19 924.35 1309.06C918.33 1303.32 911.74 1301.47 904.8 1305.8C904.01 1306.3 903.16 1306.47 902.24 1306.28C881.27 1302.21 881.99 1291.19 869.9 1278.98C860.27 1269.26 848.36 1265.82 836.34 1260.13C833.85 1258.96 828.62 1255.8 820.65 1250.67C809.3 1243.35 796.67 1239.83 782.7 1240.1C782.64 1240.1 782.58 1240.12 782.52 1240.13L774.25 1243.54C770.52 1245.09 768.06 1243.93 766.87 1240.06C761.45 1222.2 759.02 1204.49 759.58 1186.92C760.08 1171.29 756.18 1160.05 750.99 1146.2C749.41 1142 750.01 1138.91 752.81 1136.93C759.25 1132.36 777.15 1117.83 777.42 1109.78C777.94 1092.51 780.63 1079.28 785.46 1070.05C787.91 1065.37 807.74 1037.75 819.23 1034.16C819.26 1034.14 820.07 1033.3 821.07 1032.2C826.57 1026.19 839.94 1031.34 845.52 1033.75C849.24 1035.39 853.04 1038.83 856.86 1044.09C866.47 1057.23 874.7 1068.42 889.91 1075.81C904.9 1083.07 920.31 1089.4 936.16 1094.8C936.99 1095.09 937.91 1095.11 938.76 1094.85C944.35 1093.24 949.74 1093.83 954.95 1096.62C955.74 1097.04 956.32 1097.76 956.51 1098.65C959.35 1110.71 961.67 1132.5 977.83 1132.5C978.7 1132.48 979.55 1132.89 980.08 1133.6C995.71 1154 976.71 1171.04 983.8 1194.06C984.02 1194.76 984.69 1195.17 985.4 1195.04C986.1 1194.91 986.62 1194.26 986.57 1193.56C985.82 1180.76 987.73 1168.41 992.29 1156.5C992.36 1156.26 992.4 1156.05 992.38 1155.84L991.49 1146.13C991.48 1145.98 991.57 1145.87 991.7 1145.82C991.83 1145.77 991.98 1145.85 992.03 1145.98C998.17 1159.92 1008.3 1169.88 1022.42 1175.87C1024.89 1176.92 1025.15 1176.54 1023.14 1174.74C1009.42 1162.35 999.12 1151.24 993.32 1132.83C993.01 1131.79 992.32 1131.11 991.31 1130.77L976.02 1125.51C974.12 1124.87 972.78 1123.16 972.62 1121.16C971.13 1104.91 964.37 1089.69 946.92 1085.09C909.05 1075.09 874.21 1066.86 868.67 1021.36C866.93 1007.14 884.4 986.53 872.74 976.98C862.98 969 829.59 967.34 818.01 971.51C796.66 979.22 776.43 977.51 757.27 966.4C749.39 961.82 735.09 956.92 730.38 952.22C713.98 935.84 700.95 918.48 679.23 906.76C678.37 906.29 678.65 905 679.62 904.93C686.5 904.35 691.25 900.86 693.89 894.46C694.29 893.52 695.11 892.82 696.11 892.58C712.73 888.64 729.54 886.63 746.55 886.49C747.65 886.46 748.62 885.75 748.94 884.7L751.6 876.06C751.87 875.19 752.32 874.38 752.91 873.67C758.61 866.92 766.36 851.19 775.72 849.93C814.16 844.72 834.8 869.74 868.84 877.43C896.07 883.6 918.77 888.12 943.2 902.81C960.52 913.23 971.58 930.16 994.5 927.27C1009.66 925.38 1031.59 926.53 1043.03 938.13C1052.09 947.28 1061.27 956.29 1070.6 965.14C1073.51 967.91 1073.75 970.68 1071.28 973.49C1063.65 982.21 1048.35 988.11 1038.01 993.75C1022.09 1002.48 1051.32 1017.46 1056.97 1019.83C1060.56 1021.34 1060.64 1023.03 1057.22 1024.91L987.68 1062.84C986.89 1063.26 986.3 1063.97 986.03 1064.83L985.26 1067.32C984.84 1068.69 985.77 1070.06 987.19 1070.21L1042.86 1075.89C1045.23 1076.13 1045.69 1077.16 1044.19 1079.03C1038.31 1086.36 1031.55 1101.76 1033.55 1109.83C1033.92 1111.33 1035.28 1112.32 1036.81 1112.22C1038.34 1112.12 1039.57 1110.91 1039.72 1109.41C1041.07 1096.71 1046.38 1086.1 1055.66 1077.54C1057.75 1075.62 1056.83 1072.15 1054.08 1071.47C1037.47 1067.42 1020.62 1065.1 1003.47 1064.48C1002.76 1064.46 1002.5 1063.52 1003.11 1063.13C1020.75 1052.06 1038.94 1041.65 1057.68 1031.89C1064.12 1028.53 1068.25 1021.95 1061.47 1016.5C1055.67 1011.81 1040.17 1009.39 1036.25 1000.08C1035.85 999.12 1036.16 998.04 1036.98 997.43C1046.67 990.15 1079.94 982.2 1078.59 968.01C1077.98 961.32 1067.78 954.65 1062.87 950.63C1060.51 948.67 1060.63 948.47 1063.29 950.01C1078.65 958.85 1093.63 968.3 1108.23 978.32C1111 980.24 1114.43 980.14 1118.54 978.07C1119.32 977.68 1120.2 977.55 1121.05 977.66C1141.56 980.61 1147.36 999.68 1166.28 998.49C1167.19 998.43 1167.99 998.73 1168.63 999.36C1176.53 1007.14 1182.16 1012.38 1191.73 1022.66C1196.72 1028.02 1202.77 1032.1 1209.87 1034.89C1210.05 1034.97 1210.18 1034.89 1210.25 1034.69C1210.32 1034.45 1210.4 1034.22 1210.47 1033.98C1210.61 1033.53 1210.47 1033.26 1210.02 1033.12L1210 1033.11ZM508.85 392.23C508.45 393.34 508.2 393.3 508.13 392.12C507.45 383.23 505.06 378.67 501.76 371.64C501.68 371.44 501.53 371.25 501.37 371.12C500.61 370.4 500.09 369.49 499.79 368.42C499.36 366.82 499.67 366.66 500.74 367.94C504.45 372.33 510.82 386.66 508.84 392.23H508.85ZM536.16 401.42L526.18 398.35C525.08 398.01 524.07 399.14 524.57 400.21L527.61 406.76C527.91 407.37 527.66 408.1 527.04 408.42L518.92 412.65C518.47 412.89 518.29 412.74 518.29 412.26C518.5 398.12 516.3 384.36 511.7 371.01C511.15 369.35 513.23 368.09 514.42 369.37C523.01 378.63 530.88 388.47 537.99 398.89C539.8 401.52 539.16 402.36 536.14 401.43L536.16 401.42ZM1061.29 1634.15C1069.07 1640.72 1077.55 1646.32 1086.73 1650.99C1095.2 1655.32 1092.25 1658.64 1089.18 1665.26C1083.8 1676.74 1076.01 1688.87 1076.85 1701.63C1077.1 1705.21 1076.85 1705.25 1076.06 1701.76C1073.6 1690.62 1073.12 1678.63 1074.64 1665.75C1076.38 1650.85 1065.21 1646.23 1060.73 1634.55C1060.4 1633.67 1060.58 1633.53 1061.29 1634.15ZM947.8 1537.86C947.35 1538.24 944.82 1536.02 942.09 1532.92C939.37 1529.8 937.53 1526.99 937.95 1526.61C938.4 1526.23 940.93 1528.45 943.66 1531.55C946.38 1534.67 948.22 1537.48 947.8 1537.86ZM979.02 1559.87C969.77 1561.05 962.7 1557.78 957.85 1550.1C957.42 1549.91 957.12 1549.67 956.89 1549.37C956.24 1548.39 956.43 1548.25 957.46 1548.91C964.23 1553.15 971.43 1556.78 979.04 1559.79C979.07 1559.79 979.05 1559.85 979.02 1559.87ZM935 1501.71C965.69 1511.39 964.15 1538.12 988 1552.37C991.86 1554.68 991.73 1554.9 987.62 1553.03C962.4 1541.55 938.09 1535.82 934.02 1502.53C933.94 1501.76 934.26 1501.48 934.99 1501.71H935ZM824.63 1319.14C832.56 1318.59 840.22 1336.77 841.78 1359.7L841.83 1360.58C843.39 1383.52 838.25 1402.55 830.35 1403.08C830.23 1403.1 830.11 1403.01 830.09 1402.89L824.45 1319.37C824.43 1319.25 824.52 1319.13 824.64 1319.14H824.63ZM812.84 1447.89C816.81 1447.88 820.2 1449.29 823 1452.17C823.55 1452.71 823.45 1452.94 822.68 1452.85C821.16 1452.64 819.75 1452.18 818.49 1451.53C817.65 1451.07 816.76 1450.8 815.84 1450.71L812.73 1450.36C812.09 1450.3 811.6 1449.72 811.63 1449.07C811.66 1448.42 812.19 1447.89 812.85 1447.89H812.84ZM824.38 977.12C839.36 975.92 854.01 977.74 868.35 982.53C869.08 982.78 869.65 983.33 869.89 984.07C871.45 988.63 871.13 992.73 868.92 996.37C860.71 1009.86 859.19 1024.03 864.35 1038.84C864.44 1039.1 864.31 1039.34 864.08 1039.45C863.85 1039.55 863.58 1039.47 863.46 1039.23C858.24 1029.2 850.06 1022.71 838.93 1019.74C838.37 1019.6 837.88 1019.24 837.54 1018.74C832.03 1010.77 829.51 1001.97 829.96 992.37C829.98 991.74 829.77 991.11 829.35 990.63C826.47 987.3 824.37 983.46 823.07 979.09C822.72 977.89 823.15 977.25 824.39 977.14L824.38 977.12ZM721.96 999.12C740.81 997.19 755.26 1004.26 765.32 1020.33C765.92 1021.29 765.8 1022.23 765.01 1023.11C764.41 1023.76 763.84 1023.73 763.34 1023.03C755.61 1012.57 735.47 1006.54 721.77 1000.22C720.54 999.64 720.59 999.28 721.96 999.13V999.12ZM771.96 842.8C761.89 849.62 756.63 862.03 745.49 866.39C744.77 866.68 744.24 867.27 744.02 867.98L741.59 875.86C741.32 876.73 740.74 877.21 739.82 877.3C719.17 879.19 694.86 874.92 684.64 890.93C684.1 891.74 683.24 892.31 682.27 892.47C666 895.08 644.48 883.33 632.07 876.6C631.23 876.14 630.71 875.32 630.65 874.38C629.95 860.71 631.8 847.42 629.5 833.86C627.07 819.63 626.55 805.26 627.94 790.76C628.01 789.78 627.81 788.76 627.33 787.9C620.9 776.29 617.58 763.82 617.41 750.48C617.36 748.31 616.95 748.24 616.14 750.23C615.11 752.73 615.05 755.27 615.92 757.84C616.22 758.74 616.08 759.76 615.57 760.58C614.02 762.92 612.64 763.19 611.41 761.4C611.03 760.85 610.81 760.09 610.69 759.17C609.37 748.04 604.67 731.58 607.88 720.98C612.33 706.25 617.24 691.72 622.66 677.37C623.11 676.19 623.58 676.16 624.08 677.32C627.9 686.12 631.87 694.79 635.99 703.33C642.31 716.52 651.71 727.64 660.01 739.97C669.4 753.93 677.57 773.79 689.64 789.58C696.49 798.53 705.58 799.64 713.54 804.76C721.34 809.78 729.46 814.23 737.86 818.12C751.76 824.53 761.2 831.69 772.04 840.75C772.93 841.49 772.9 842.16 771.96 842.79V842.8ZM1016.84 919.75C1008.43 918.97 999.95 919.03 991.46 919.9C974.71 921.64 961.56 904.94 948.32 897.33C938.76 891.86 928.71 886.69 918.13 883.52C917.87 883.44 917.71 883.19 917.77 882.92C917.8 882.64 918.05 882.46 918.31 882.48L947.74 884.01C950.34 884.15 952.63 882.32 953.1 879.77C953.98 874.95 956.21 870.89 959.78 867.6C960.55 866.89 961.23 866.98 961.81 867.82C975.66 887.73 995.69 902.24 1017.08 919.15C1017.68 919.62 1017.59 919.82 1016.83 919.76L1016.84 919.75Z" fill="#4FC4FF"/>
</svg>
