<svg width="250" height="250" viewBox="0 0 250 250" fill="none" xmlns="http://www.w3.org/2000/svg">
<path d="M72.4179 185.744C58.1509 185.744 57.5565 182.767 59.0426 181.279C62.0149 175.326 69.7428 161.633 76.8763 154.488C85.7931 145.558 81.3347 123.233 81.3347 114.302C81.3347 105.372 79.0416 86.3954 83.5 73C84.9186 68.7378 88.5729 66.3969 92.7677 65.186H85.7931C82.2264 65.186 75.3901 56.2558 72.4179 51.7907C62.0149 53.2791 42.1006 55.3628 45.6673 51.7907C50.1258 47.3256 59.0426 33 63.501 33C67.0678 33 70.5 29.4651 81.3347 25C93 25 92.0349 29.4651 99.1684 29.4651C106.302 29.4651 116.528 35 119.5 35L125.919 42.8605C127.405 47.3256 130.933 48.2186 134.5 51.7907C138.067 55.3628 142.266 62.2093 143.753 60.7209C148.211 69.6512 157.128 88.4046 157.128 91.9767C157.128 95.5488 160.1 108.349 161.586 114.302C161.586 117.279 162.478 125.019 166.045 132.163C170.503 141.093 170.503 145.558 170.503 150.023C170.503 153.595 179.42 154.488 183.878 154.488L179.42 176.814L188.337 185.744C197.254 184.256 216.871 181.279 224.004 181.279C232.921 181.279 250.755 172.349 246.296 181.279C241.838 190.209 206.17 217 179.42 217C152.669 217 50.1258 212.535 36.7505 208.07C26.0503 204.498 14.4584 197.651 10 194.674C10 190.209 12.6751 181.279 23.3753 181.279C34.0755 181.279 54.5842 187.233 63.501 190.209C66.7257 188.917 70.7339 187.345 75.1069 185.675C74.2322 185.72 73.3369 185.744 72.4179 185.744Z" fill="#5A5A5A" stroke="black" stroke-width="6"/>
</svg>
